<svg xmlns="http://www.w3.org/2000/svg" width="1280" height="320" viewBox="0 0 1280 320" role="img" aria-labelledby="title desc">
  <title id="title">davidleitw</title><desc id="desc">Isometric contribution calendar profile banner</desc>
  <style>
    .bg{fill:#fff}.fg{fill:#1f2328}.muted{fill:#8b949e}.grid{stroke:#d0d7de}.top{fill:#40c463}.left{fill:#2da44e}.right{fill:#1a7f37}.word{font-family:-apple-system,"Segoe UI",Roboto,sans-serif;font-weight:750;letter-spacing:-3px}.meta{font-family:-apple-system,"Segoe UI",Roboto,sans-serif;font-size:21px}
    @media (prefers-color-scheme:dark){.bg{fill:#0d1117}.fg{fill:#e6edf3}.muted{fill:#6e7681}.grid{stroke:#30363d}.top{fill:#39d353}.left{fill:#26a641}.right{fill:#1f883d}}
  </style>
  <rect class="bg" width="1280" height="320"/>
  <path class="grid" fill="none" stroke-width="1" d="M64 250H716M64 70H716"/>
  <text class="word fg" x="64" y="152" font-size="88">davidleitw</text>
  <text class="meta muted" x="68" y="202">Backend @ Synology · Go · C · AI agent tooling</text>
  <g transform="translate(830 40)">
    <g transform="translate(0 88)"><path class="top" d="M0 24 38 2l38 22-38 22z"/><path class="left" d="M0 24l38 22v38L0 62z"/><path class="right" d="M76 24 38 46v38l38-22z"/></g>
    <g transform="translate(78 44)"><path class="top" d="M0 24 38 2l38 22-38 22z"/><path class="left" d="M0 24l38 22v76L0 100z"/><path class="right" d="M76 24 38 46v76l38-22z"/></g>
    <g transform="translate(156 88)"><path class="top" d="M0 24 38 2l38 22-38 22z"/><path class="left" d="M0 24l38 22v38L0 62z"/><path class="right" d="M76 24 38 46v38l38-22z"/></g>
    <g transform="translate(78 132)"><path class="top" d="M0 24 38 2l38 22-38 22z"/><path class="left" d="M0 24l38 22v38L0 62z"/><path class="right" d="M76 24 38 46v38l38-22z"/></g>
    <g transform="translate(234 44)"><path class="top" d="M0 24 38 2l38 22-38 22z"/><path class="left" d="M0 24l38 22v76L0 100z"/><path class="right" d="M76 24 38 46v76l38-22z"/></g>
    <g transform="translate(312 88)"><path class="top" d="M0 24 38 2l38 22-38 22z"/><path class="left" d="M0 24l38 22v38L0 62z"/><path class="right" d="M76 24 38 46v38l38-22z"/></g>
  </g>
</svg>
